<?xml version="1.0" encoding="UTF-8"?>
<svg id="Layer_2" xmlns="http://www.w3.org/2000/svg" viewBox="0 0 22.56 20.91">
    <defs>
        <style>
            .cls-1{fill:#5d7a8f;}.cls-1,.cls-2{stroke-width:0px;}.cls-2{fill:#04395f;}
            @media (prefers-color-scheme: dark) {
            .cls-1{fill:#e0ff66;}.cls-1,.cls-2{stroke-width:0px;}.cls-2{fill:#fff;}
            }

        </style>
    </defs>
    <g id="Layer_1-2">
        <path class="cls-1" d="m14.37,0h-5.39l-1.95,4.93c1.47-1.03,2.83-1.52,4.23-1.52l7.3-1.2c-.94-1.36-2.53-2.2-4.19-2.2Z" />
        <path class="cls-2" d="m14.77,20.89c1.65-.13,3.18-1.09,4.01-2.53l2.69-4.66-3.16-3.66c.1,1.46-.2,2.66-.98,4.02l-2.55,6.82Z" />
        <path class="cls-2" d="m3.99,18.7c.94,1.36,2.53,2.21,4.19,2.21h5.39l1.79-4.76c-1.35.93-2.62,1.35-4.07,1.36l-7.3,1.2Z" />
        <path class="cls-1" d="m5.27,14.15L.49,8.26c-.71,1.5-.64,3.29.19,4.73l2.69,4.66,5.21-.77c-1.64-.74-2.61-1.55-3.31-2.75Z" />
        <path class="cls-1" d="m3.77,2.54L1.08,7.21l3.26,4.09c-.18-1.76.05-3.01.74-4.21L7.78.02c-1.65.13-3.17,1.09-4.01,2.53Z" />
        <path class="cls-2" d="m21.88,7.91l-2.69-4.66-4.97.84c1.44.7,2.47,1.64,3.22,2.93l4.63,5.62c.71-1.5.65-3.29-.19-4.74Z" />
    </g>
</svg>