<?xml version="1.0" encoding="UTF-8"?>
<svg id="Layer_2" xmlns="http://www.w3.org/2000/svg" viewBox="0 0 227.94 49.56">
    <defs>
        <style>.cls-1{fill:#e0ff66;}.cls-1,.cls-2{stroke-width:0px;}.cls-2{fill:#fff;}</style>
    </defs>
    <g id="Layer_1-2">
        <path class="cls-1" d="m21.15,0l-5.03,12.69c3.72-2.79,7.1-4.11,10.57-4.11l17.6-2.89c-2.23-3.52-6.14-5.69-10.33-5.69h-12.82Z" />
        <path class="cls-2" d="m44.55,43.45l6.41-11.09-8.16-9.42c.43,3.83-.21,6.76-2.17,10.16l-6.16,16.45c4.16-.17,8-2.47,10.09-6.1Z" />
        <path class="cls-2" d="m19.46,49.56h12.82l4.63-12.28c-3.45,2.58-6.55,3.7-10.16,3.7l-17.6,2.89c2.23,3.52,6.14,5.69,10.33,5.69Z" />
        <path class="cls-1" d="m1.63,30.89l6.41,11.1,13.44-1.99c-3.73-1.55-6.63-3.39-8.57-6.72L1.39,19.1c-1.93,3.69-1.85,8.16.24,11.78Z" />
        <path class="cls-1" d="m8.88,6.11l-6.41,11.1,8.43,10.56c-.52-3.96-.37-7.35,1.56-10.71L18.97.01c-4.16.17-7.99,2.47-10.09,6.1Z" />
        <path class="cls-2" d="m51.8,18.67h0s-6.41-11.1-6.41-11.1l-12.81,2.17c3.82,1.67,6.41,3.9,8.29,7.15l11.17,13.57c1.93-3.69,1.86-8.16-.24-11.79Z" />
        <path class="cls-2"
            d="m65.57,32.63V13c0-.27.22-.5.5-.5h9.4c4.62,0,7.26,2.28,7.26,6.24v.3c0,2.41-1.32,4.26-3.37,4.95,2.57.63,4.12,2.61,4.12,5.51v.3c0,4.39-2.84,6.86-7.85,6.86h-6.04c-2.22,0-4.02-1.8-4.02-4.02Zm9.1-10.72c1.62,0,2.61-.86,2.61-2.21v-.23c0-1.35-.99-2.15-2.61-2.15h-3.53v4.59h3.53Zm.33,9.93c1.82,0,2.9-.89,2.9-2.34v-.43c0-1.52-1.06-2.41-2.9-2.41h-3.86v5.18h3.86Z" />
        <path class="cls-2"
            d="m85.86,28.04v-14.97c0-.32.26-.57.57-.57h4.43c.32,0,.57.26.57.57v14.84c0,2.21.82,3.99,3.79,3.99s3.83-1.78,3.83-3.99v-9.83c0-3.08,2.5-5.58,5.58-5.58h0v15.41c0,4.95-2.87,9.14-9.47,9.14s-9.3-3.9-9.3-9.01Z" />
        <path class="cls-2" d="m108.49,13c0-.27.22-.5.5-.5h0c2.8,0,5.08,2.27,5.08,5.08v18.58c0,.27-.22.49-.49.49h-4.5c-.32,0-.58-.26-.58-.58V13Z" />
        <path class="cls-2"
            d="m117.92,36.16V13c0-.27.22-.5.5-.5h4.51c.32,0,.57.26.57.57v18.43s4.75,0,4.75,0c2.57,0,4.65,2.08,4.65,4.65h0c0,.27-.22.49-.49.49h-13.99c-.27,0-.49-.22-.49-.49Z" />
        <path class="cls-2"
            d="m135.53,36.16v-18.51h-1.88c-2.57,0-4.65-2.08-4.65-4.65h0c0-.27.22-.5.5-.5h13.46c2.57,0,4.65,2.08,4.65,4.65h0c0,.27-.22.49-.49.49h-6.01v18.51c0,.27-.22.49-.49.49h-4.59c-.27,0-.49-.22-.49-.49Z" />
        <path class="cls-1"
            d="m155.93,36.23l-6.86-23.16c-.1-.36.1-.56.43-.56h4.69c.3,0,.5.17.56.43l2.97,10.82c.63,2.28,1.38,5.31,1.68,7.29h.13c.39-2.21,1.22-5.34,1.78-7.39l1.76-6.43c.76-2.79,3.3-4.72,6.19-4.72h0c.33,0,.53.2.43.56l-6.73,23.16c-.06.3-.3.43-.56.43h-5.9c-.26,0-.49-.16-.56-.43Z" />
        <path class="cls-1" d="m171.79,36.08V13c0-.27.22-.5.5-.5h0c2.8,0,5.08,2.27,5.08,5.08v18.58c0,.27-.22.49-.49.49h-4.51c-.32,0-.57-.26-.57-.57Z" />
        <path class="cls-1"
            d="m181.22,36.16V13c0-.27.22-.49.49-.49h14.15c.27,0,.5.22.5.5v3.91c0,.32-.26.57-.57.57h-8.99s0,4.49,0,4.49h8.12c.27,0,.49.22.49.49v3.8c0,.27-.22.49-.49.49h-8.12v4.92h5.15c2.48,0,4.49,2.01,4.49,4.49h0c0,.27-.22.49-.49.49h-14.22c-.27,0-.49-.22-.49-.49Z" />
        <path class="cls-1"
            d="m203.41,36.23l-4.45-23.19c-.06-.36.13-.53.46-.53h4.59c.3,0,.5.13.53.46l1.78,11.48c.26,1.78.66,5.05.82,6.83h.1c.23-1.55.73-5.14,1.09-6.86l2.4-11.46c.06-.26.29-.45.56-.45h4.86c.3,0,.49.13.56.43l2.31,11.55c.36,1.75.86,5.05,1.09,6.8h.1c.2-1.88.46-4.78.76-6.8l1.75-11.51c.03-.33.23-.46.53-.46h4.22c.33,0,.53.17.46.53l-4.26,23.16c-.07.3-.23.46-.53.46h-5.71c-.25,0-.47-.18-.53-.43l-2.21-10.62c-.37-1.78-.73-3.96-1.02-5.74h-.07c-.36,2.01-.73,4.02-1.09,5.71l-2.31,10.66c-.06.26-.26.43-.56.43h-5.68c-.3,0-.49-.13-.56-.43Z" />
    </g>
</svg>